<svg xmlns="http://www.w3.org/2000/svg" viewBox="0 0 128 128">
  <defs>
    <linearGradient id="g" x1="0" x2="1" y1="0" y2="1">
      <stop offset="0" stop-color="#3b82f6"/>
      <stop offset="1" stop-color="#8b5cf6"/>
    </linearGradient>
    <filter id="shadow" x="-20%" y="-20%" width="140%" height="140%">
      <feDropShadow dx="0" dy="4" stdDeviation="4" flood-color="#000" flood-opacity="0.25"/>
    </filter>
  </defs>
  <rect x="8" y="8" width="112" height="112" rx="28" ry="28" fill="url(#g)" filter="url(#shadow)"/>
  <g fill="#fff" transform="translate(18,20)">
    <!-- Stylized J -->
    <path d="M26 12h16v8H34v34c0 12-8 18-20 18H6v-12h6c5 0 8-3 8-9V12z"/>
    <!-- Stylized R -->
    <path d="M54 12h18c12 0 20 6 20 18 0 9-5 15-13 17l15 25H80l-12-22h-2v22H54V12zm16 24h4c6 0 10-2 10-6 0-4-3-6-9-6h-5v12z"/>
  </g>
</svg>
